{
  "title": "Sia - Chandelier [Music Video] 1080p [Sbyky]",
  "uid": 10162951,
  "size": 80281651,
  "categoryP": "video",
  "categoryS": "music_videos",
  "magnet": "?xt=urn:btih:023b117c1b9682c068d1e6f19d15df78fc6ca2f4&amp;dn=Sia+-+Chandelier+%5BMusic+Video%5D+1080p+%5BSbyky%5D&amp;tr=udp%3A%2F%2Ftracker.openbittorrent.com%3A80&amp;tr=udp%3A%2F%2Fopen.demonii.com%3A1337&amp;tr=udp%3A%2F%2Ftracker.coppersurfer.tk%3A6969&amp;tr=udp%3A%2F%2Fexodus.desync.com%3A6969",
  "seeders": 37,
  "leechers": 5,
  "uploader": "Sbyky",
  "files": 1,
  "time": 1400324154,
  "description": "\n\nGeneral\nComplete name                            : Sia - Chandelier [Music Video] 1080p [Sbyky].MP4\nFormat                                   : MPEG-4\nFormat profile                           : Base Media\nCodec ID                                 : isom\nFile size                                : 76.6 MiB\nDuration                                 : 3mn 51s\nOverall bit rate mode                    : Variable\nOverall bit rate                         : 2 776 Kbps\nEncoded date                             : UTC 2014-05-01 18:56:11\nTagged date                              : UTC 2014-05-01 18:56:11\n\nVideo\nID                                       : 1\nFormat                                   : AVC\nFormat/Info                              : Advanced Video Codec\nFormat profile                           : &lt;a class=&quot;__cf_email__&quot; href=&quot;/cdn-cgi/l/email-protection&quot; data-cfemail=&quot;4901202e2109057d6779&quot;&gt;[email&amp;#160;protected]&lt;/a&gt;&lt;script cf-hash='f9e31' type=&quot;text/javascript&quot;&gt;\n/* &lt;![CDATA[ */!function(){try{var t=&quot;currentScript&quot;in document?document.currentScript:function(){for(var t=document.getElementsByTagName(&quot;script&quot;),e=t.length;e--;)if(t[e].getAttribute(&quot;cf-hash&quot;))return t[e]}();if(t&amp;&amp;t.previousSibling){var e,r,n,i,c=t.previousSibling,a=c.getAttribute(&quot;data-cfemail&quot;);if(a){for(e=&quot;&quot;,r=parseInt(a.substr(0,2),16),n=2;a.length-n;n+=2)i=parseInt(a.substr(n,2),16)^r,e+=String.fromCharCode(i);e=document.createTextNode(e),c.parentNode.replaceChild(e,c)}}}catch(u){}}();/* ]]&gt; */&lt;/script&gt;\nFormat settings, CABAC                   : Yes\nFormat settings, ReFrames                : 2 frames\nCodec ID                                 : avc1\nCodec ID/Info                            : Advanced Video Coding\nDuration                                 : 3mn 51s\nBit rate                                 : 2 646 Kbps\nWidth                                    : 1 920 pixels\nHeight                                   : 1 080 pixels\nDisplay aspect ratio                     : 16:9\nFrame rate mode                          : Variable\nFrame rate                               : 23.976 fps\nMinimum frame rate                       : 23.974 fps\nMaximum frame rate                       : 24.220 fps\nColor space                              : YUV\nChroma subsampling                       : 4:2:0\nBit depth                                : 8 bits\nScan type                                : Progressive\nBits/(Pixel*Frame)                       : 0.053\nStream size                              : 73.0 MiB (95%)\nEncoded date                             : UTC 2014-05-01 18:56:11\nTagged date                              : UTC 2014-05-01 18:56:11\n\nAudio\nID                                       : 2\nFormat                                   : AAC\nFormat/Info                              : Advanced Audio Codec\nFormat profile                           : LC\nCodec ID                                 : 40\nDuration                                 : 3mn 51s\nBit rate mode                            : Variable\nBit rate                                 : 126 Kbps\nChannel(s)                               : 2 channels\nChannel positions                        : Front: L R\nSampling rate                            : 44.1 KHz\nCompression mode                         : Lossy\nStream size                              : 3.46 MiB (5%)\nEncoded date                             : UTC 2014-05-01 18:56:11\nTagged date                              : UTC 2014-05-01 18:56:11\n\nShared By Sbyky\n",
  "parsed": {
    "xt": "urn:btih:023b117c1b9682c068d1e6f19d15df78fc6ca2f4",
    "dn": "Sia - Chandelier [Music Video] 1080p [Sbyky]",
    "tr": [
      "udp://exodus.desync.com:6969",
      "udp://open.demonii.com:1337",
      "udp://tracker.coppersurfer.tk:6969",
      "udp://tracker.openbittorrent.com:80"
    ],
    "infoHash": "023b117c1b9682c068d1e6f19d15df78fc6ca2f4",
    "infoHashBuffer": {
      "type": "Buffer",
      "data": [
        2,
        59,
        17,
        124,
        27,
        150,
        130,
        192,
        104,
        209,
        230,
        241,
        157,
        21,
        223,
        120,
        252,
        108,
        162,
        244
      ]
    },
    "name": "Sia - Chandelier [Music Video] 1080p [Sbyky]",
    "announce": [
      "udp://exodus.desync.com:6969",
      "udp://open.demonii.com:1337",
      "udp://tracker.coppersurfer.tk:6969",
      "udp://tracker.openbittorrent.com:80"
    ],
    "urlList": []
  },
  "previous": 32,
  "peers": 43,
  "last_updated": "2016-12-26T14:42:57.478Z"
}